STARTFONT 2.1
FONT -Bitstream-Dutch 801-Medium-R-Normal--10-100-75-75-P-77-DEC-DECmath_Symbol
SIZE 10 75 75
FONTBOUNDINGBOX 13 18 -2 -10

STARTPROPERTIES 26
FONTNAME_REGISTRY ""
FAMILY_NAME "Dutch 801"
FOUNDRY "Bitstream"
WEIGHT_NAME "Medium"
SETWIDTH_NAME "Normal"
SLANT "R"
ADD_STYLE_NAME ""
PIXEL_SIZE 10
POINT_SIZE 100
RESOLUTION_X 75
RESOLUTION_Y 75
SPACING "P"
AVERAGE_WIDTH 77
CHARSET_REGISTRY "DEC"
CHARSET_ENCODING "DECmath_Symbol"
CAP_HEIGHT 7
X_HEIGHT 0
CHARSET_COLLECTIONS "DEC-DECmath_Symbol"
FULL_NAME "Dutch 801 Roman DECmath_Symbol"
COPYRIGHT "Copyright 1989 by Bitstream, Inc. and Digital Equipment Corp. All rights reserved."
NOTICE "Dutch 801 is a registered trademark of Bitstream, Inc."
WEIGHT 10
QUAD_WIDTH 6
DEFAULT_CHAR 32
FONT_DESCENT 10
FONT_ASCENT 8
ENDPROPERTIES

CHARS 128

STARTCHAR arrowleft
ENCODING 32
SWIDTH 1000 0
DWIDTH 10 0
BBX 9 3 1 2
BITMAP
4000
FF80
4000
ENDCHAR

STARTCHAR arrowright
ENCODING 33
SWIDTH 1000 0
DWIDTH 10 0
BBX 9 3 1 2
BITMAP
0100
FF80
0100
ENDCHAR

STARTCHAR arrowup
ENCODING 34
SWIDTH 500 0
DWIDTH 5 0
BBX 3 10 1 -2
BITMAP
40
E0
40
40
40
40
40
40
40
40
ENDCHAR

STARTCHAR arrowdown
ENCODING 35
SWIDTH 500 0
DWIDTH 5 0
BBX 3 10 1 -2
BITMAP
40
40
40
40
40
40
40
40
E0
40
ENDCHAR

STARTCHAR arrowboth
ENCODING 36
SWIDTH 1000 0
DWIDTH 10 0
BBX 9 3 1 2
BITMAP
4100
FF80
4100
ENDCHAR

STARTCHAR arrownortheast
ENCODING 37
SWIDTH 1000 0
DWIDTH 10 0
BBX 9 9 1 -1
BITMAP
0780
0180
0280
0480
0800
1000
2000
4000
8000
ENDCHAR

STARTCHAR arrowsoutheast
ENCODING 38
SWIDTH 1000 0
DWIDTH 10 0
BBX 9 9 1 -1
BITMAP
8000
4000
2000
1000
0800
0480
0280
0180
0780
ENDCHAR

STARTCHAR similarequal
ENCODING 39
SWIDTH 1000 0
DWIDTH 10 0
BBX 7 4 2 2
BITMAP
72
8C
00
FE
ENDCHAR

STARTCHAR arrowdblleft
ENCODING 40
SWIDTH 1000 0
DWIDTH 10 0
BBX 9 5 1 1
BITMAP
2000
7F80
8000
7F80
2000
ENDCHAR

STARTCHAR arrowdblright
ENCODING 41
SWIDTH 1000 0
DWIDTH 10 0
BBX 9 5 1 1
BITMAP
0200
FF00
0080
FF00
0200
ENDCHAR

STARTCHAR arrowdblup
ENCODING 42
SWIDTH 500 0
DWIDTH 5 0
BBX 5 10 0 -2
BITMAP
20
50
D8
50
50
50
50
50
50
50
ENDCHAR

STARTCHAR arrowdbldown
ENCODING 43
SWIDTH 500 0
DWIDTH 5 0
BBX 5 10 0 -2
BITMAP
50
50
50
50
50
50
50
D8
50
20
ENDCHAR

STARTCHAR arrowdblboth
ENCODING 44
SWIDTH 1000 0
DWIDTH 10 0
BBX 9 5 1 1
BITMAP
2200
7F00
8080
7F00
2200
ENDCHAR

STARTCHAR arrownorthwest
ENCODING 45
SWIDTH 1000 0
DWIDTH 10 0
BBX 9 9 1 -1
BITMAP
F000
C000
A000
9000
0800
0400
0200
0100
0080
ENDCHAR

STARTCHAR arrowsouthwest
ENCODING 46
SWIDTH 1000 0
DWIDTH 10 0
BBX 9 9 1 -1
BITMAP
0080
0100
0200
0400
0800
9000
A000
C000
F000
ENDCHAR

STARTCHAR proportional
ENCODING 47
SWIDTH 1000 0
DWIDTH 10 0
BBX 6 4 2 1
BITMAP
6C
90
90
6C
ENDCHAR

STARTCHAR prime
ENCODING 48
SWIDTH 278 0
DWIDTH 3 0
BBX 2 4 0 2
BITMAP
40
40
80
80
ENDCHAR

STARTCHAR infinity
ENCODING 49
SWIDTH 833 0
DWIDTH 9 0
BBX 7 4 1 1
BITMAP
6C
92
92
6C
ENDCHAR

STARTCHAR element
ENCODING 50
SWIDTH 1000 0
DWIDTH 10 0
BBX 7 7 2 0
BITMAP
3E
40
80
FE
80
40
3E
ENDCHAR

STARTCHAR suchthat
ENCODING 51
SWIDTH 1000 0
DWIDTH 10 0
BBX 7 7 2 0
BITMAP
F8
04
02
FE
02
04
F8
ENDCHAR

STARTCHAR trianglelgup
ENCODING 52
SWIDTH 1000 0
DWIDTH 10 0
BBX 8 8 1 0
BITMAP
08
18
24
24
42
42
81
FF
ENDCHAR

STARTCHAR trianglelgdown
ENCODING 53
SWIDTH 1000 0
DWIDTH 10 0
BBX 8 8 1 -1
BITMAP
FF
81
42
42
24
24
18
08
ENDCHAR

STARTCHAR slashnegate
ENCODING 54
SWIDTH 0 0
DWIDTH 5 0
BBX 4 10 1 -2
BITMAP
10
10
20
20
20
40
40
40
80
80
ENDCHAR

STARTCHAR mapsto
ENCODING 55
SWIDTH 0 0
DWIDTH 1 0
BBX 2 3 0 2
BITMAP
80
C0
80
ENDCHAR

STARTCHAR universal
ENCODING 56
SWIDTH 637 0
DWIDTH 7 0
BBX 7 8 0 0
BITMAP
82
82
7C
44
28
28
10
10
ENDCHAR

STARTCHAR existential
ENCODING 57
SWIDTH 639 0
DWIDTH 7 0
BBX 6 8 1 0
BITMAP
FC
04
04
FC
04
04
04
FC
ENDCHAR

STARTCHAR logicalnot
ENCODING 58
SWIDTH 833 0
DWIDTH 9 0
BBX 7 3 1 2
BITMAP
FE
02
02
ENDCHAR

STARTCHAR emptyset
ENCODING 59
SWIDTH 500 0
DWIDTH 5 0
BBX 5 9 0 -1
BITMAP
08
70
98
A8
A8
A8
C8
70
80
ENDCHAR

STARTCHAR Rfraktur
ENCODING 60
SWIDTH 794 0
DWIDTH 7 0
BBX 7 8 0 0
BITMAP
4C
B4
92
52
9C
14
54
26
ENDCHAR

STARTCHAR Ifraktur
ENCODING 61
SWIDTH 699 0
DWIDTH 7 0
BBX 6 8 0 0
BITMAP
20
5C
44
28
08
44
A4
18
ENDCHAR

STARTCHAR latticetop
ENCODING 62
SWIDTH 778 0
DWIDTH 8 0
BBX 7 7 1 0
BITMAP
FE
10
10
10
10
10
10
ENDCHAR

STARTCHAR latticebot
ENCODING 63
SWIDTH 778 0
DWIDTH 8 0
BBX 7 7 1 0
BITMAP
10
10
10
10
10
10
FE
ENDCHAR

STARTCHAR aleph
ENCODING 64
SWIDTH 602 0
DWIDTH 6 0
BBX 5 8 1 0
BITMAP
90
C8
58
60
60
B0
98
88
ENDCHAR

STARTCHAR Acursive
ENCODING 65
SWIDTH 630 0
DWIDTH 7 0
BBX 8 8 -1 -1
BITMAP
02
06
0A
0A
1E
52
A3
C0
ENDCHAR

STARTCHAR Bcursive
ENCODING 66
SWIDTH 613 0
DWIDTH 6 0
BBX 6 7 0 0
BITMAP
28
74
24
38
48
68
90
ENDCHAR

STARTCHAR Ccursive
ENCODING 67
SWIDTH 546 0
DWIDTH 6 0
BBX 6 7 0 0
BITMAP
1C
24
48
80
80
90
E0
ENDCHAR

STARTCHAR Dcursive
ENCODING 68
SWIDTH 722 0
DWIDTH 7 0
BBX 7 7 0 0
BITMAP
7C
96
22
22
44
4C
B0
ENDCHAR

STARTCHAR Ecursive
ENCODING 69
SWIDTH 535 0
DWIDTH 6 0
BBX 6 7 0 0
BITMAP
18
24
20
70
80
88
F0
ENDCHAR

STARTCHAR Fcursive
ENCODING 70
SWIDTH 558 0
DWIDTH 6 0
BBX 6 7 0 0
BITMAP
7C
88
10
78
10
20
C0
ENDCHAR

STARTCHAR Gcursive
ENCODING 71
SWIDTH 595 0
DWIDTH 6 0
BBX 6 9 0 -2
BITMAP
1C
24
40
98
88
90
F0
20
40
ENDCHAR

STARTCHAR Hcursive
ENCODING 72
SWIDTH 722 0
DWIDTH 7 0
BBX 8 7 -1 0
BITMAP
31
12
22
3C
44
48
8C
ENDCHAR

STARTCHAR Icursive
ENCODING 73
SWIDTH 431 0
DWIDTH 4 0
BBX 5 7 -1 0
BITMAP
38
48
10
10
20
A0
40
ENDCHAR

STARTCHAR Jcursive
ENCODING 74
SWIDTH 475 0
DWIDTH 5 0
BBX 6 8 0 -1
BITMAP
3C
48
48
10
10
A0
A0
C0
ENDCHAR

STARTCHAR Kcursive
ENCODING 75
SWIDTH 676 0
DWIDTH 7 0
BBX 8 7 -1 0
BITMAP
31
12
24
38
50
4A
8C
ENDCHAR

STARTCHAR Lcursive
ENCODING 76
SWIDTH 602 0
DWIDTH 6 0
BBX 7 8 -1 -1
BITMAP
0C
12
14
10
20
20
64
98
ENDCHAR

STARTCHAR Mcursive
ENCODING 77
SWIDTH 896 0
DWIDTH 9 0
BBX 10 8 -2 -1
BITMAP
0C40
0440
0C80
0D80
1680
14C0
A480
C000
ENDCHAR

STARTCHAR Ncursive
ENCODING 78
SWIDTH 722 0
DWIDTH 7 0
BBX 8 8 -1 -1
BITMAP
33
51
19
2A
2A
24
44
C0
ENDCHAR

STARTCHAR Ocursive
ENCODING 79
SWIDTH 671 0
DWIDTH 7 0
BBX 7 7 0 0
BITMAP
1C
22
42
82
84
88
70
ENDCHAR

STARTCHAR Pcursive
ENCODING 80
SWIDTH 593 0
DWIDTH 6 0
BBX 6 7 0 0
BITMAP
28
74
24
48
70
80
C0
ENDCHAR

STARTCHAR Qcursive
ENCODING 81
SWIDTH 676 0
DWIDTH 7 0
BBX 7 8 0 -1
BITMAP
1C
22
42
42
24
08
F0
1C
ENDCHAR

STARTCHAR Rcursive
ENCODING 82
SWIDTH 662 0
DWIDTH 7 0
BBX 7 7 0 0
BITMAP
28
74
24
48
70
8A
C4
ENDCHAR

STARTCHAR Scursive
ENCODING 83
SWIDTH 523 0
DWIDTH 5 0
BBX 5 7 0 0
BITMAP
38
48
80
70
08
90
E0
ENDCHAR

STARTCHAR Tcursive
ENCODING 84
SWIDTH 650 0
DWIDTH 7 0
BBX 6 7 1 0
BITMAP
6C
90
20
40
80
90
60
ENDCHAR

STARTCHAR Ucursive
ENCODING 85
SWIDTH 699 0
DWIDTH 7 0
BBX 7 7 0 0
BITMAP
22
64
24
48
58
A8
CC
ENDCHAR

STARTCHAR Vcursive
ENCODING 86
SWIDTH 569 0
DWIDTH 6 0
BBX 5 7 1 0
BITMAP
C8
48
48
90
90
A0
C0
ENDCHAR

STARTCHAR Wcursive
ENCODING 87
SWIDTH 792 0
DWIDTH 8 0
BBX 8 7 0 0
BITMAP
C9
49
52
92
A4
A4
D8
ENDCHAR

STARTCHAR Xcursive
ENCODING 88
SWIDTH 722 0
DWIDTH 7 0
BBX 7 7 0 0
BITMAP
1A
2A
0C
08
58
AA
C4
ENDCHAR

STARTCHAR Ycursive
ENCODING 89
SWIDTH 625 0
DWIDTH 6 0
BBX 7 9 0 -2
BITMAP
62
24
24
48
48
50
70
20
C0
ENDCHAR

STARTCHAR Zcursive
ENCODING 90
SWIDTH 588 0
DWIDTH 6 0
BBX 7 8 -1 -1
BITMAP
3E
24
08
10
20
40
A4
18
ENDCHAR

STARTCHAR union
ENCODING 91
SWIDTH 1000 0
DWIDTH 10 0
BBX 7 7 2 0
BITMAP
82
82
82
82
82
44
38
ENDCHAR

STARTCHAR intersection
ENCODING 92
SWIDTH 1000 0
DWIDTH 10 0
BBX 7 7 2 0
BITMAP
38
44
82
82
82
82
82
ENDCHAR

STARTCHAR unionmultiset
ENCODING 93
SWIDTH 1000 0
DWIDTH 10 0
BBX 7 7 2 0
BITMAP
82
82
92
BA
92
44
38
ENDCHAR

STARTCHAR logicaland
ENCODING 94
SWIDTH 1000 0
DWIDTH 10 0
BBX 7 8 2 -1
BITMAP
10
10
28
28
44
44
82
82
ENDCHAR

STARTCHAR logicalor
ENCODING 95
SWIDTH 1000 0
DWIDTH 10 0
BBX 7 8 2 -1
BITMAP
82
82
44
44
28
28
10
10
ENDCHAR

STARTCHAR turnstileleft
ENCODING 96
SWIDTH 611 0
DWIDTH 6 0
BBX 5 7 1 0
BITMAP
80
80
80
F8
80
80
80
ENDCHAR

STARTCHAR turnstileright
ENCODING 97
SWIDTH 611 0
DWIDTH 6 0
BBX 5 7 1 0
BITMAP
08
08
08
F8
08
08
08
ENDCHAR

STARTCHAR bracketleftbt
ENCODING 98
SWIDTH 528 0
DWIDTH 5 0
BBX 3 10 2 -2
BITMAP
80
80
80
80
80
80
80
80
80
E0
ENDCHAR

STARTCHAR bracketrightbt
ENCODING 99
SWIDTH 528 0
DWIDTH 5 0
BBX 3 10 0 -2
BITMAP
20
20
20
20
20
20
20
20
20
E0
ENDCHAR

STARTCHAR bracketlefttp
ENCODING 100
SWIDTH 528 0
DWIDTH 5 0
BBX 3 10 2 -2
BITMAP
E0
80
80
80
80
80
80
80
80
80
ENDCHAR

STARTCHAR bracketrighttp
ENCODING 101
SWIDTH 528 0
DWIDTH 5 0
BBX 3 10 0 -2
BITMAP
E0
20
20
20
20
20
20
20
20
20
ENDCHAR

STARTCHAR braceleft
ENCODING 102
SWIDTH 500 0
DWIDTH 5 0
BBX 3 10 1 -2
BITMAP
20
40
40
40
80
40
40
40
40
20
ENDCHAR

STARTCHAR braceright
ENCODING 103
SWIDTH 500 0
DWIDTH 5 0
BBX 3 10 1 -2
BITMAP
80
40
40
40
20
40
40
40
40
80
ENDCHAR

STARTCHAR angleleft
ENCODING 104
SWIDTH 333 0
DWIDTH 3 0
BBX 3 11 0 -3
BITMAP
20
20
20
40
40
80
40
40
20
20
20
ENDCHAR

STARTCHAR angleright
ENCODING 105
SWIDTH 333 0
DWIDTH 3 0
BBX 3 11 0 -3
BITMAP
80
80
80
40
40
20
40
40
80
80
80
ENDCHAR

STARTCHAR bar
ENCODING 106
SWIDTH 602 0
DWIDTH 6 0
BBX 1 10 3 -2
BITMAP
80
80
80
80
80
80
80
80
80
80
ENDCHAR

STARTCHAR bardbl
ENCODING 107
SWIDTH 1000 0
DWIDTH 10 0
BBX 3 10 4 -2
BITMAP
A0
A0
A0
A0
A0
A0
A0
A0
A0
A0
ENDCHAR

STARTCHAR arrowupdown
ENCODING 108
SWIDTH 500 0
DWIDTH 5 0
BBX 3 10 1 -2
BITMAP
40
E0
40
40
40
40
40
40
E0
40
ENDCHAR

STARTCHAR arrowdblupdown
ENCODING 109
SWIDTH 500 0
DWIDTH 5 0
BBX 5 10 0 -2
BITMAP
20
50
D8
50
50
50
50
D8
50
20
ENDCHAR

STARTCHAR backslash
ENCODING 110
SWIDTH 500 0
DWIDTH 5 0
BBX 4 10 1 -2
BITMAP
80
80
40
40
40
20
20
20
10
10
ENDCHAR

STARTCHAR wreathproduct
ENCODING 111
SWIDTH 278 0
DWIDTH 3 0
BBX 3 6 0 0
BITMAP
C0
20
40
80
80
60
ENDCHAR

STARTCHAR radical
ENCODING 112
SWIDTH 1000 0
DWIDTH 10 0
BBX 9 10 1 -10
BITMAP
0080
0080
0100
0100
6200
A200
1400
1400
0800
0800
ENDCHAR

STARTCHAR coproduct
ENCODING 113
SWIDTH 768 0
DWIDTH 8 0
BBX 8 7 0 0
BITMAP
E7
42
42
42
42
42
FF
ENDCHAR

STARTCHAR gradient
ENCODING 114
SWIDTH 713 0
DWIDTH 7 0
BBX 7 7 0 0
BITMAP
FE
82
44
44
28
28
10
ENDCHAR

STARTCHAR integral
ENCODING 115
SWIDTH 274 0
DWIDTH 3 0
BBX 5 9 -1 -1
BITMAP
18
20
20
20
20
20
20
20
C0
ENDCHAR

STARTCHAR unionsqr
ENCODING 116
SWIDTH 1000 0
DWIDTH 10 0
BBX 7 7 2 0
BITMAP
82
82
82
82
82
82
FE
ENDCHAR

STARTCHAR intersectsqr
ENCODING 117
SWIDTH 1000 0
DWIDTH 10 0
BBX 7 7 2 0
BITMAP
FE
82
82
82
82
82
82
ENDCHAR

STARTCHAR reflsubsetsq
ENCODING 118
SWIDTH 1000 0
DWIDTH 10 0
BBX 7 9 2 -2
BITMAP
FE
80
80
80
80
80
FE
00
FE
ENDCHAR

STARTCHAR reflsupersetsq
ENCODING 119
SWIDTH 1000 0
DWIDTH 10 0
BBX 7 9 2 -2
BITMAP
FE
02
02
02
02
02
FE
00
FE
ENDCHAR

STARTCHAR section
ENCODING 120
SWIDTH 500 0
DWIDTH 5 0
BBX 4 8 1 -1
BITMAP
70
80
60
90
90
60
10
E0
ENDCHAR

STARTCHAR dagger
ENCODING 121
SWIDTH 500 0
DWIDTH 5 0
BBX 5 8 0 -1
BITMAP
20
20
F8
20
20
20
20
20
ENDCHAR

STARTCHAR daggerdbl
ENCODING 122
SWIDTH 500 0
DWIDTH 5 0
BBX 5 8 0 -1
BITMAP
20
20
F8
20
20
F8
20
20
ENDCHAR

STARTCHAR paragraph
ENCODING 123
SWIDTH 500 0
DWIDTH 5 0
BBX 6 8 0 -1
BITMAP
7C
E8
E8
68
28
28
28
28
ENDCHAR

STARTCHAR clubsuit
ENCODING 124
SWIDTH 1150 0
DWIDTH 12 0
BBX 9 9 2 -1
BITMAP
1C00
3E00
1C00
6B00
FF80
EB80
6B00
0800
1C00
ENDCHAR

STARTCHAR diamondsuit
ENCODING 125
SWIDTH 1148 0
DWIDTH 12 0
BBX 9 9 2 -1
BITMAP
0800
1400
2200
4100
8080
4100
2200
1400
0800
ENDCHAR

STARTCHAR heartsuit
ENCODING 126
SWIDTH 1147 0
DWIDTH 12 0
BBX 9 9 2 -1
BITMAP
6300
9480
8880
8080
4100
2200
1400
0800
0800
ENDCHAR

STARTCHAR spadesuit
ENCODING 127
SWIDTH 1148 0
DWIDTH 12 0
BBX 9 9 2 -1
BITMAP
0800
1C00
3E00
7F00
FF80
FF80
6B00
0800
1C00
ENDCHAR

STARTCHAR minus
ENCODING 160
SWIDTH 833 0
DWIDTH 9 0
BBX 7 1 1 3
BITMAP
FE
ENDCHAR

STARTCHAR dotmath
ENCODING 161
SWIDTH 572 0
DWIDTH 6 0
BBX 1 1 3 3
BITMAP
80
ENDCHAR

STARTCHAR multiply
ENCODING 162
SWIDTH 833 0
DWIDTH 9 0
BBX 6 5 2 1
BITMAP
84
48
30
48
84
ENDCHAR

STARTCHAR asteriskmath
ENCODING 163
SWIDTH 1000 0
DWIDTH 10 0
BBX 5 5 3 0
BITMAP
20
A8
70
A8
20
ENDCHAR

STARTCHAR divide
ENCODING 164
SWIDTH 833 0
DWIDTH 9 0
BBX 7 5 1 1
BITMAP
10
00
FE
00
10
ENDCHAR

STARTCHAR diamondop
ENCODING 165
SWIDTH 500 0
DWIDTH 5 0
BBX 5 5 0 0
BITMAP
20
50
88
50
20
ENDCHAR

STARTCHAR plusminus
ENCODING 166
SWIDTH 833 0
DWIDTH 9 0
BBX 7 7 1 0
BITMAP
10
10
FE
10
10
10
FE
ENDCHAR

STARTCHAR minusplus
ENCODING 167
SWIDTH 833 0
DWIDTH 9 0
BBX 7 7 1 0
BITMAP
FE
10
10
10
FE
10
10
ENDCHAR

STARTCHAR circleplus
ENCODING 168
SWIDTH 1000 0
DWIDTH 10 0
BBX 8 8 1 -1
BITMAP
3C
4A
89
FF
89
89
4A
3C
ENDCHAR

STARTCHAR circleminus
ENCODING 169
SWIDTH 1000 0
DWIDTH 10 0
BBX 8 8 1 -1
BITMAP
3C
42
81
FF
81
81
42
3C
ENDCHAR

STARTCHAR circlemultiply
ENCODING 170
SWIDTH 1000 0
DWIDTH 10 0
BBX 8 8 1 -1
BITMAP
3C
42
A5
99
99
A5
42
3C
ENDCHAR

STARTCHAR circledivide
ENCODING 171
SWIDTH 1000 0
DWIDTH 10 0
BBX 8 8 1 -1
BITMAP
3C
42
85
89
91
A1
42
3C
ENDCHAR

STARTCHAR circledot
ENCODING 172
SWIDTH 1000 0
DWIDTH 10 0
BBX 8 8 1 -1
BITMAP
3C
42
81
99
99
81
42
3C
ENDCHAR

STARTCHAR overlaycircle
ENCODING 173
SWIDTH 1000 0
DWIDTH 10 0
BBX 10 10 0 -2
BITMAP
1E00
6180
4080
8040
8040
8040
8040
4080
6180
1E00
ENDCHAR

STARTCHAR circleop
ENCODING 174
SWIDTH 500 0
DWIDTH 5 0
BBX 4 4 1 1
BITMAP
60
90
90
60
ENDCHAR

STARTCHAR bullet
ENCODING 175
SWIDTH 500 0
DWIDTH 5 0
BBX 4 4 1 1
BITMAP
60
F0
F0
60
ENDCHAR

STARTCHAR hardyequiv
ENCODING 176
SWIDTH 1000 0
DWIDTH 10 0
BBX 6 5 2 1
BITMAP
84
78
00
78
84
ENDCHAR

STARTCHAR equivalence
ENCODING 177
SWIDTH 1000 0
DWIDTH 10 0
BBX 7 5 2 1
BITMAP
FE
00
FE
00
FE
ENDCHAR

STARTCHAR reflexsubset
ENCODING 178
SWIDTH 1000 0
DWIDTH 10 0
BBX 7 9 2 -2
BITMAP
3E
40
80
80
80
40
3E
00
FE
ENDCHAR

STARTCHAR reflexsuperset
ENCODING 179
SWIDTH 1000 0
DWIDTH 10 0
BBX 7 9 2 -2
BITMAP
F8
04
02
02
02
04
F8
00
FE
ENDCHAR

STARTCHAR lessequal
ENCODING 180
SWIDTH 1000 0
DWIDTH 10 0
BBX 7 7 2 0
BITMAP
06
38
C0
38
06
00
FE
ENDCHAR

STARTCHAR greaterequal
ENCODING 181
SWIDTH 1000 0
DWIDTH 10 0
BBX 7 7 2 0
BITMAP
C0
38
06
38
C0
00
FE
ENDCHAR

STARTCHAR precedesequal
ENCODING 182
SWIDTH 1000 0
DWIDTH 10 0
BBX 6 6 2 1
BITMAP
04
18
E0
18
04
FC
ENDCHAR

STARTCHAR followsequal
ENCODING 183
SWIDTH 1000 0
DWIDTH 10 0
BBX 6 6 2 1
BITMAP
80
60
1C
60
80
FC
ENDCHAR

STARTCHAR similar
ENCODING 184
SWIDTH 1000 0
DWIDTH 10 0
BBX 7 2 2 3
BITMAP
72
8C
ENDCHAR

STARTCHAR approxequal
ENCODING 185
SWIDTH 1000 0
DWIDTH 10 0
BBX 7 5 2 1
BITMAP
72
8C
00
72
8C
ENDCHAR

STARTCHAR propersubset
ENCODING 186
SWIDTH 1000 0
DWIDTH 10 0
BBX 7 7 2 0
BITMAP
3E
40
80
80
80
40
3E
ENDCHAR

STARTCHAR propersuperset
ENCODING 187
SWIDTH 1000 0
DWIDTH 10 0
BBX 7 7 2 0
BITMAP
F8
04
02
02
02
04
F8
ENDCHAR

STARTCHAR muchless
ENCODING 188
SWIDTH 1000 0
DWIDTH 10 0
BBX 10 7 0 0
BITMAP
0440
1980
2200
CC00
2200
1980
0440
ENDCHAR

STARTCHAR muchgreater
ENCODING 189
SWIDTH 1000 0
DWIDTH 10 0
BBX 10 7 0 0
BITMAP
8800
6600
1100
0CC0
1100
6600
8800
ENDCHAR

STARTCHAR precedes
ENCODING 190
SWIDTH 1000 0
DWIDTH 10 0
BBX 7 5 2 1
BITMAP
02
1C
E0
1C
02
ENDCHAR

STARTCHAR follows
ENCODING 191
SWIDTH 1000 0
DWIDTH 10 0
BBX 7 5 2 1
BITMAP
80
70
0E
70
80
ENDCHAR
ENDFONT
